<?xml version="1.0" encoding="UTF-8"?>
<svg id="OBJECTS" xmlns="http://www.w3.org/2000/svg" version="1.1" viewBox="0 0 464.71 106.11">
  <!-- Generator: Adobe Illustrator 30.2.1, SVG Export Plug-In . SVG Version: 2.1.1 Build 1)  -->
  <defs>
    <style>
      .st0 {
        fill: #f97316;
      }

      .st1 {
        isolation: isolate;
      }

      .st2 {
        fill: #383838;
      }
    </style>
  </defs>
  <g class="st1">
    <path class="st2" d="M114.48,60.11v-20.32h-18.87v20.32h-8.45V15.03h8.45v16.74h18.87V15.03h8.54v45.08h-8.54Z"/>
    <path class="st2" d="M177.15,60.11l-5.04-12.21h-14.69l-5.04,12.21h-9.14l18.95-45.08h5.29l18.61,45.08h-8.96ZM164.77,30.4l-4.1,9.82h8.2l-4.1-9.82Z"/>
    <path class="st2" d="M206.52,60.11V15.03h8.45v37.23h10.42v7.85h-18.87Z"/>
    <path class="st2" d="M246.82,60.11V15.03h8.45v37.23h10.42v7.85h-18.87Z"/>
    <path class="st2" d="M329.72,60.11l-4.61-22.54-.6-4.1-1.37,4.01-9.39,22.63h-5.12l-9.56-22.97-1.28-3.84-.6,3.93-4.78,22.88h-8.54l9.56-45.08h5.29l12.38,29.8,12.47-29.8h5.29l9.48,45.08h-8.62Z"/>
    <path class="st2" d="M389.4,60.11l-5.04-12.21h-14.69l-5.04,12.21h-9.14l18.96-45.08h5.29l18.61,45.08h-8.96ZM377.02,30.4l-4.1,9.82h8.2l-4.1-9.82Z"/>
    <path class="st2" d="M461.46,60.11h-5.55l-28.69-30.31v30.31h-8.45V15.03h5.55l28.69,30.14V15.03h8.45v45.08Z"/>
  </g>
  <g class="st1">
    <path class="st0" d="M96.53,89.06v-6.3h-5.85v6.3h-2.62v-13.99h2.62v5.19h5.85v-5.19h2.65v13.99h-2.65Z"/>
    <path class="st0" d="M127.5,84.08c0,.16,0,.31-.03.45-.04.72-.19,1.38-.46,1.97-.27.59-.64,1.09-1.1,1.5-.46.41-1,.72-1.62.94s-1.29.33-2.01.33c-.58,0-1.16-.08-1.72-.25-.57-.17-1.08-.41-1.55-.74-.47-.33-.87-.72-1.19-1.19-.33-.47-.54-.99-.65-1.58-.05-.3-.08-.61-.09-.93,0-.32-.01-.64-.01-.98v-8.53h2.65v8.29c0,.6.02,1.11.07,1.52s.18.75.41,1.02.54.48.94.65.78.25,1.15.25c.58,0,1.05-.09,1.39-.28.34-.18.6-.43.77-.74.17-.31.28-.67.33-1.09.05-.42.08-.86.08-1.34v-8.29h2.65v9.01Z"/>
    <path class="st0" d="M158.62,89.06l-1.43-6.99-.19-1.27-.42,1.25-2.91,7.02h-1.59l-2.97-7.13-.4-1.19-.19,1.22-1.48,7.1h-2.65l2.97-13.99h1.64l3.84,9.24,3.87-9.24h1.64l2.94,13.99h-2.68Z"/>
    <path class="st0" d="M187.73,89.06l-1.56-3.79h-4.56l-1.56,3.79h-2.83l5.88-13.99h1.64l5.77,13.99h-2.78ZM183.89,79.84l-1.27,3.05h2.54l-1.27-3.05Z"/>
    <path class="st0" d="M220.69,89.06h-1.72l-8.9-9.4v9.4h-2.62v-13.99h1.72l8.9,9.35v-9.35h2.62v13.99Z"/>
    <path class="st0" d="M267.39,89.06l-3.71-5.32v5.32h-2.57v-13.99h3.07c.69,0,1.33.07,1.93.2.6.13,1.13.36,1.58.68.45.32.81.74,1.07,1.26.27.52.4,1.18.4,1.97,0,1.02-.26,1.86-.79,2.52-.53.65-1.23,1.1-2.09,1.35l4.21,6.01h-3.1ZM266.57,79.15c0-.35-.06-.64-.19-.85-.12-.21-.29-.38-.5-.49-.21-.11-.45-.19-.72-.22-.26-.04-.54-.05-.82-.05h-.64v3.26h.74c.53,0,1.02-.12,1.46-.34s.66-.66.66-1.3Z"/>
    <path class="st0" d="M287.34,89.06v-13.99h7.89v2.49h-5.27v2.7h5.11v2.46h-5.11v3.87h5.27v2.46h-7.89Z"/>
    <path class="st0" d="M321.56,84.82c0,.65-.14,1.25-.41,1.79-.27.54-.63,1.01-1.07,1.4-.44.4-.95.71-1.54.93-.58.22-1.17.33-1.78.33-2.17,0-3.76-1.33-4.77-4l2.3-1.06c.21.51.42.94.62,1.27.2.34.41.6.61.79.2.19.41.33.62.41.21.08.43.12.66.12.28,0,.55-.06.81-.17.26-.11.48-.26.67-.45s.35-.4.46-.65c.12-.25.17-.51.17-.79,0-.21-.07-.41-.21-.58s-.32-.34-.53-.48c-.21-.14-.43-.26-.66-.37-.23-.11-.42-.2-.58-.29-.46-.23-.92-.46-1.39-.69s-.9-.49-1.29-.79c-.39-.3-.71-.66-.95-1.09-.25-.42-.37-.94-.37-1.56,0-.58.1-1.12.3-1.6.2-.49.49-.91.85-1.27.36-.36.79-.64,1.29-.85.49-.2,1.04-.3,1.64-.3.79,0,1.55.22,2.25.66s1.36,1.15,1.96,2.12l-1.96,1.59c-.26-.39-.5-.71-.71-.95s-.41-.44-.58-.58c-.18-.14-.34-.23-.5-.28-.16-.04-.33-.07-.5-.07-.41,0-.75.14-1.02.42-.27.28-.41.65-.41,1.09,0,.19.06.37.19.52.12.15.28.28.46.4.19.12.38.22.58.32.2.1.38.18.52.25l2.38,1.25c.58.37,1.04.82,1.38,1.34.33.52.5,1.15.5,1.89Z"/>
    <path class="st0" d="M352.69,82.07c0,.99-.19,1.92-.58,2.79-.39.87-.91,1.64-1.58,2.29s-1.44,1.17-2.33,1.55c-.89.38-1.83.57-2.82.57s-1.95-.19-2.83-.57c-.88-.38-1.66-.9-2.33-1.55s-1.2-1.42-1.59-2.29c-.39-.88-.58-1.81-.58-2.79s.19-1.89.58-2.77c.39-.87.91-1.64,1.58-2.3.66-.66,1.44-1.18,2.33-1.56.89-.38,1.84-.57,2.85-.57s1.93.19,2.82.57c.89.38,1.67.9,2.33,1.55s1.19,1.42,1.58,2.29c.39.87.58,1.81.58,2.79ZM350.09,82.07c0-.64-.13-1.24-.38-1.81-.26-.57-.6-1.07-1.02-1.5s-.92-.76-1.5-1.02c-.57-.26-1.18-.38-1.81-.38s-1.27.12-1.84.37c-.57.25-1.08.59-1.51,1.02s-.77.94-1.02,1.51-.37,1.18-.37,1.81.13,1.24.38,1.81c.25.57.6,1.08,1.03,1.51s.94.78,1.51,1.03c.57.26,1.18.38,1.81.38s1.24-.13,1.81-.38c.57-.26,1.07-.6,1.5-1.03s.76-.94,1.02-1.51c.26-.57.38-1.18.38-1.81Z"/>
    <path class="st0" d="M380.32,84.08c0,.16,0,.31-.03.45-.04.72-.19,1.38-.46,1.97-.27.59-.64,1.09-1.1,1.5s-1,.72-1.62.94-1.29.33-2.01.33c-.58,0-1.16-.08-1.72-.25-.57-.17-1.08-.41-1.55-.74-.47-.33-.87-.72-1.19-1.19s-.54-.99-.65-1.58c-.05-.3-.08-.61-.09-.93,0-.32-.01-.64-.01-.98v-8.53h2.65v8.29c0,.6.02,1.11.07,1.52s.18.75.41,1.02.54.48.94.65.78.25,1.15.25c.58,0,1.05-.09,1.39-.28.34-.18.6-.43.77-.74.17-.31.28-.67.33-1.09.05-.42.08-.86.08-1.34v-8.29h2.65v9.01Z"/>
    <path class="st0" d="M404.5,89.06l-3.71-5.32v5.32h-2.57v-13.99h3.07c.69,0,1.33.07,1.93.2.6.13,1.13.36,1.58.68.45.32.81.74,1.07,1.26.27.52.4,1.18.4,1.97,0,1.02-.26,1.86-.79,2.52-.53.65-1.23,1.1-2.09,1.35l4.21,6.01h-3.1ZM403.68,79.15c0-.35-.06-.64-.19-.85-.12-.21-.29-.38-.5-.49-.21-.11-.45-.19-.72-.22-.26-.04-.54-.05-.82-.05h-.64v3.26h.74c.53,0,1.02-.12,1.46-.34s.66-.66.66-1.3Z"/>
    <path class="st0" d="M433.12,88.9c-.75.25-1.53.37-2.34.37-.99,0-1.93-.19-2.82-.57-.89-.38-1.67-.89-2.34-1.54s-1.21-1.4-1.6-2.28-.6-1.81-.6-2.79.19-1.95.58-2.82c.39-.87.92-1.64,1.6-2.29.68-.65,1.47-1.17,2.36-1.55s1.84-.57,2.85-.57c.74,0,1.5.12,2.28.37.78.25,1.62.72,2.54,1.43l-1.38,2.04c-.41-.3-.77-.54-1.1-.72-.33-.18-.63-.31-.91-.41-.28-.1-.54-.16-.78-.19-.24-.03-.47-.04-.7-.04-.64,0-1.24.13-1.81.38-.57.26-1.08.6-1.51,1.05s-.78.95-1.03,1.54c-.26.58-.38,1.2-.38,1.85,0,.6.13,1.18.38,1.74.25.56.6,1.05,1.05,1.48s.94.78,1.51,1.03,1.17.38,1.8.38c.46,0,.95-.08,1.48-.24.53-.16,1.2-.54,2.01-1.14l1.4,2.07c-.94.69-1.78,1.16-2.53,1.4Z"/>
    <path class="st0" d="M452.87,89.06v-13.99h7.89v2.49h-5.27v2.7h5.11v2.46h-5.11v3.87h5.27v2.46h-7.89Z"/>
  </g>
  <g>
    <path class="st0" d="M50.45,48.37H9.96V10.56C9.96,5.05,5.5.59,0,.59h0v105.52h9.96v-47.78h40.49v47.78h9.96v-47.78h0c0-5.5-4.46-9.96-9.96-9.96h0Z"/>
    <path d="M50.45.59v41.02h0c6.89,0,9.96,4.11,9.96,4.11V.59h-9.96Z"/>
  </g>
</svg>